<svg width="60" height="60" viewBox="0 0 60 60" fill="none" xmlns="http://www.w3.org/2000/svg">
<path d="M11.0662 50.8269L6.85498 3.96875H53.145L48.9281 50.8194L29.9719 56.0312L11.0662 50.8269Z" fill="#1572B6"/>
<path d="M30 52.0485L45.3187 47.837L48.9225 7.80092H30V52.0485Z" fill="#33A9DC"/>
<path d="M30 24.777H37.6688L38.1975 18.8921H30V13.1448H44.5312L44.3925 14.6862L42.9694 30.5243H30V24.777V24.777Z" fill="white"/>
<path d="M30.0356 39.7022L30.0093 39.7097L23.5556 37.9804L23.1431 33.3971H17.325L18.1368 42.4206L30.0075 45.6894L30.0356 45.682V39.7022V39.7022Z" fill="#EBEBEB"/>
<path d="M37.1755 30.2808L36.478 37.9767L30.0149 39.7059V45.6857L41.8949 42.4206L41.983 41.45L42.9899 30.2808H37.1755V30.2808Z" fill="white"/>
<path d="M30.0206 13.1448V18.8921H16.0218L15.9056 17.5998L15.6412 14.6862L15.5024 13.1448H30.0206V13.1448ZM29.9999 24.777V30.5243H23.6268L23.5106 29.2321L23.2481 26.3184L23.1093 24.777H29.9999V24.777Z" fill="#EBEBEB"/>
</svg>
